<svg xmlns="http://www.w3.org/2000/svg" xmlns:xlink="http://www.w3.org/1999/xlink" viewBox="0,0,256,256" width="24px" height="24px" fill-rule="nonzero"><g fill="#1e1b4b" fill-rule="nonzero" stroke="none" stroke-width="1" stroke-linecap="butt" stroke-linejoin="miter" stroke-miterlimit="10" stroke-dasharray="" stroke-dashoffset="0" font-family="none" font-weight="none" font-size="none" text-anchor="none" style="mix-blend-mode: normal"><g transform="scale(10.66667,10.66667)"><path d="M12,2c-5.523,0 -10,4.477 -10,10c0,5.523 4.477,10 10,10c5.523,0 10,-4.477 10,-10c0,-5.523 -4.477,-10 -10,-10zM10,16c-2.254,0 -4.073,-1.865 -3.998,-4.136c0.069,-2.072 1.785,-3.788 3.857,-3.861c0.738,-0.026 1.428,0.153 2.027,0.48c0.445,0.243 0.518,0.854 0.15,1.202v0c-0.236,0.222 -0.588,0.265 -0.874,0.111c-0.5,-0.27 -1.099,-0.377 -1.738,-0.229c-0.949,0.219 -1.703,0.998 -1.88,1.956c-0.294,1.59 0.919,2.977 2.456,2.977c1.209,0 2.218,-0.859 2.45,-2h-1.7c-0.414,0 -0.75,-0.336 -0.75,-0.75v0c0,-0.414 0.336,-0.75 0.75,-0.75h2.219c0.553,0 1.029,0.436 1.031,0.99c0,0.003 0,0.007 0,0.01c0,2.209 -1.791,4 -4,4zM18,12v1c0,0.276 -0.224,0.5 -0.5,0.5v0c-0.276,0 -0.5,-0.224 -0.5,-0.5v-1h-1c-0.276,0 -0.5,-0.224 -0.5,-0.5v0c0,-0.276 0.224,-0.5 0.5,-0.5h1v-1c0,-0.276 0.224,-0.5 0.5,-0.5v0c0.276,0 0.5,0.224 0.5,0.5v1h1c0.276,0 0.5,0.224 0.5,0.5v0c0,0.276 -0.224,0.5 -0.5,0.5z"></path></g></g></svg>